<svg width="1280" height="640" viewBox="0 0 1280 640" fill="none" xmlns="http://www.w3.org/2000/svg">
  <defs>
    <linearGradient id="bg" x1="0" y1="0" x2="1280" y2="640" gradientUnits="userSpaceOnUse">
      <stop stop-color="#0B1020"/>
      <stop offset="1" stop-color="#111827"/>
    </linearGradient>
    <linearGradient id="accent" x1="176" y1="172" x2="1104" y2="468" gradientUnits="userSpaceOnUse">
      <stop stop-color="#3B82F6"/>
      <stop offset="1" stop-color="#22C55E"/>
    </linearGradient>
    <filter id="blur" x="0" y="0" width="1280" height="640" filterUnits="userSpaceOnUse" color-interpolation-filters="sRGB">
      <feGaussianBlur stdDeviation="60"/>
    </filter>
  </defs>

  <rect width="1280" height="640" fill="url(#bg)"/>

  <g opacity="0.16" filter="url(#blur)">
    <circle cx="233" cy="143" r="92" fill="#3B82F6"/>
    <circle cx="1070" cy="507" r="128" fill="#22C55E"/>
  </g>

  <rect x="92" y="92" width="1096" height="456" rx="32" fill="#0F172A" fill-opacity="0.72" stroke="#334155" stroke-width="2"/>

  <rect x="140" y="148" width="132" height="14" rx="7" fill="#1E293B"/>
  <rect x="288" y="148" width="88" height="14" rx="7" fill="#1E293B"/>
  <rect x="392" y="148" width="116" height="14" rx="7" fill="#1E293B"/>

  <rect x="140" y="434" width="208" height="18" rx="9" fill="#1E293B"/>
  <rect x="368" y="434" width="160" height="18" rx="9" fill="#1E293B"/>
  <rect x="548" y="434" width="194" height="18" rx="9" fill="#1E293B"/>

  <text x="640" y="270" text-anchor="middle" fill="#F8FAFC" font-size="58" font-weight="700" font-family="Helvetica, Arial, sans-serif">SafeDecoding</text>
  <text x="640" y="320" text-anchor="middle" fill="#CBD5E1" font-size="22" font-weight="500" font-family="Helvetica, Arial, sans-serif">Resilient JSON decoding that preserves valid data when messy payloads drift.</text>

  <rect x="382" y="378" width="516" height="4" rx="2" fill="url(#accent)"/>

  <text x="640" y="476" text-anchor="middle" fill="#94A3B8" font-size="18" font-weight="500" font-family="Helvetica, Arial, sans-serif">Swift Package • iOS 17+ • macOS 14+</text>
</svg>
